<svg width="45" height="45" viewBox="0 0 45 45" fill="none" xmlns="http://www.w3.org/2000/svg">
<path d="M12.9375 38.625C15.75 40.3125 19.125 41.25 22.5 41.25C32.8125 41.25 41.25 32.8125 41.25 22.5C41.25 12.1875 32.8125 3.75 22.5 3.75C12.1875 3.75 3.75 12.1875 3.75 22.5C3.75 25.875 4.6875 29.0625 6.1875 31.875L4.575 38.0737C4.49181 38.3938 4.49472 38.7301 4.58343 39.0486C4.67215 39.3671 4.84351 39.6565 5.08015 39.8874C5.31679 40.1184 5.61028 40.2826 5.93087 40.3635C6.25146 40.4444 6.58775 40.4391 6.90563 40.3481L12.9375 38.625Z" stroke="black" stroke-width="1.5" stroke-miterlimit="10" stroke-linecap="round" stroke-linejoin="round"/>
<path d="M30.9375 27.84C30.9375 28.1437 30.87 28.4569 30.7256 28.7606C30.5783 29.0745 30.3849 29.3646 30.1519 29.6213C29.7375 30.0769 29.2819 30.405 28.7644 30.6169C28.2581 30.8288 27.7088 30.9375 27.1181 30.9375C26.2556 30.9375 25.335 30.735 24.3619 30.3225C23.3331 29.8765 22.3581 29.3154 21.4556 28.65C20.474 27.933 19.5477 27.1433 18.6844 26.2875C17.8302 25.429 17.0424 24.5069 16.3275 23.5294C15.6705 22.6347 15.1147 21.6701 14.67 20.6531C14.265 19.6875 14.0625 18.7688 14.0625 17.8931C14.0625 17.3194 14.1638 16.7719 14.3663 16.2656C14.5688 15.75 14.8912 15.2775 15.3394 14.8556C15.8794 14.3231 16.47 14.0625 17.0963 14.0625C17.3325 14.0625 17.5687 14.1131 17.7806 14.2144C18 14.3156 18.1931 14.4675 18.3469 14.6869L20.3081 17.4469C20.4581 17.6569 20.5706 17.8519 20.6456 18.0375C20.7206 18.2137 20.7638 18.3919 20.7638 18.5513C20.7613 18.7639 20.6996 18.9717 20.5856 19.1512C20.4554 19.3708 20.2965 19.5719 20.1131 19.7494L19.47 20.4169C19.4253 20.4606 19.3902 20.5133 19.3669 20.5714C19.3437 20.6295 19.3328 20.6918 19.335 20.7544C19.335 20.82 19.3444 20.88 19.3613 20.9475C19.3856 21.015 19.4119 21.0656 19.4288 21.1163C19.5788 21.3956 19.8413 21.7575 20.2144 22.1963C20.595 22.635 21 23.0831 21.4388 23.5294C21.8963 23.9775 22.335 24.39 22.7831 24.7706C23.2219 25.14 23.5856 25.3931 23.8725 25.545L24.0263 25.6144C24.0936 25.6384 24.1648 25.6498 24.2362 25.6481C24.3009 25.6495 24.3652 25.6374 24.4249 25.6125C24.4846 25.5877 24.5385 25.5506 24.5831 25.5038L25.2244 24.87C25.4363 24.66 25.6387 24.5006 25.8337 24.3975C26.0131 24.2832 26.2211 24.2221 26.4337 24.2213C26.6112 24.2239 26.7864 24.2615 26.9494 24.3319C27.135 24.4069 27.33 24.5156 27.54 24.66L30.3375 26.6438C30.5402 26.7756 30.7014 26.9622 30.8025 27.1819C30.8901 27.3903 30.936 27.6139 30.9375 27.84Z" stroke="black" stroke-width="1.5" stroke-miterlimit="10"/>
</svg>
